<?xml version="1.0" encoding="UTF-8"?> <svg xmlns="http://www.w3.org/2000/svg" width="45" height="35" viewBox="0 0 45 35" fill="none"><path fill-rule="evenodd" clip-rule="evenodd" d="M15.5 11C15.5 9.067 17.067 7.5 19 7.5H29C30.933 7.5 32.5 9.067 32.5 11V31C32.5 32.933 30.933 34.5 29 34.5H19C17.067 34.5 15.5 32.933 15.5 31V11ZM19 8.5C17.6193 8.5 16.5 9.61929 16.5 11V31C16.5 32.3807 17.6193 33.5 19 33.5H29C30.3807 33.5 31.5 32.3807 31.5 31V11C31.5 9.61929 30.3807 8.5 29 8.5H19Z" fill="#004ADB"></path><path fill-rule="evenodd" clip-rule="evenodd" d="M27.5 4C27.5 2.067 29.067 0.5 31 0.5H41C42.933 0.5 44.5 2.067 44.5 4V24C44.5 25.933 42.933 27.5 41 27.5H35C34.7239 27.5 34.5 27.2761 34.5 27C34.5 26.7239 34.7239 26.5 35 26.5H41C42.3807 26.5 43.5 25.3807 43.5 24V4C43.5 2.61929 42.3807 1.5 41 1.5H31C29.6193 1.5 28.5 2.61929 28.5 4V5C28.5 5.27614 28.2761 5.5 28 5.5C27.7239 5.5 27.5 5.27614 27.5 5V4Z" fill="#004ADB"></path><path d="M20.4472 8.89443L20 8H28L27.5528 8.89443C27.214 9.572 26.5215 10 25.7639 10H22.2361C21.4785 10 20.786 9.572 20.4472 8.89443Z" fill="#004ADB"></path><path d="M32.4472 1.89443L32 1H40L39.5528 1.89443C39.214 2.572 38.5215 3 37.7639 3H34.2361C33.4785 3 32.786 2.572 32.4472 1.89443Z" fill="#004ADB"></path><path d="M21 31C21 31.5523 20.5523 32 20 32C19.4477 32 19 31.5523 19 31C19 30.4477 19.4477 30 20 30C20.5523 30 21 30.4477 21 31Z" fill="#F6731F"></path><path d="M25 31C25 31.5523 24.5523 32 24 32C23.4477 32 23 31.5523 23 31C23 30.4477 23.4477 30 24 30C24.5523 30 25 30.4477 25 31Z" fill="#F6731F"></path><path d="M29 31C29 31.5523 28.5523 32 28 32C27.4477 32 27 31.5523 27 31C27 30.4477 27.4477 30 28 30C28.5523 30 29 30.4477 29 31Z" fill="#F6731F"></path><path fill-rule="evenodd" clip-rule="evenodd" d="M21 14H20L20 15H21V14ZM20 13C19.4477 13 19 13.4477 19 14V15C19 15.5523 19.4477 16 20 16H21C21.5523 16 22 15.5523 22 15V14C22 13.4477 21.5523 13 21 13H20Z" fill="#F6731F"></path><path fill-rule="evenodd" clip-rule="evenodd" d="M21 19H20L20 20H21V19ZM20 18C19.4477 18 19 18.4477 19 19V20C19 20.5523 19.4477 21 20 21H21C21.5523 21 22 20.5523 22 20V19C22 18.4477 21.5523 18 21 18H20Z" fill="#F6731F"></path><path fill-rule="evenodd" clip-rule="evenodd" d="M21 24H20L20 25H21V24ZM20 23C19.4477 23 19 23.4477 19 24V25C19 25.5523 19.4477 26 20 26H21C21.5523 26 22 25.5523 22 25V24C22 23.4477 21.5523 23 21 23H20Z" fill="#F6731F"></path><path d="M23 14.5C23 14.2239 23.2239 14 23.5 14H27.5C27.7761 14 28 14.2239 28 14.5V14.5C28 14.7761 27.7761 15 27.5 15H23.5C23.2239 15 23 14.7761 23 14.5V14.5Z" fill="#F6731F"></path><path d="M23 19.5C23 19.2239 23.2239 19 23.5 19H25.5C25.7761 19 26 19.2239 26 19.5V19.5C26 19.7761 25.7761 20 25.5 20H23.5C23.2239 20 23 19.7761 23 19.5V19.5Z" fill="#F6731F"></path><path d="M23 24.5C23 24.2239 23.2239 24 23.5 24H26.5C26.7761 24 27 24.2239 27 24.5V24.5C27 24.7761 26.7761 25 26.5 25H23.5C23.2239 25 23 24.7761 23 24.5V24.5Z" fill="#F6731F"></path><path d="M12 17.5C12 17.2239 11.7761 17 11.5 17H1.5C1.22386 17 1 17.2239 1 17.5V17.5C1 17.7761 1.22386 18 1.5 18H11.5C11.7761 18 12 17.7761 12 17.5V17.5Z" fill="#F6731F"></path><path d="M12 20.5C12 20.2239 11.7761 20 11.5 20H6.5C6.22386 20 6 20.2239 6 20.5V20.5C6 20.7761 6.22386 21 6.5 21H11.5C11.7761 21 12 20.7761 12 20.5V20.5Z" fill="#F6731F"></path><path d="M12 23.5C12 23.2239 11.7761 23 11.5 23H0.5C0.223858 23 0 23.2239 0 23.5V23.5C0 23.7761 0.223858 24 0.5 24H11.5C11.7761 24 12 23.7761 12 23.5V23.5Z" fill="#F6731F"></path></svg> 