<?xml version="1.0" encoding="UTF-8"?> <svg xmlns="http://www.w3.org/2000/svg" viewBox="0 0 45.73 29.36"><defs><style>.cls-1{fill:#f37224;}.cls-2{fill:#004adb;}.cls-3{fill:#f6731f;}</style></defs><g id="Warstwa_2" data-name="Warstwa 2"><g id="Warstwa_1-2" data-name="Warstwa 1"><g id="Warstwa_1-3" data-name="Warstwa 1"><path class="cls-1" d="M27,14.58H13.79a.5.5,0,0,1,0-1H27a.5.5,0,0,1,0,1"></path><path class="cls-1" d="M20.75,17.85h-7a.51.51,0,0,1-.5-.5.5.5,0,0,1,.5-.5h7a.5.5,0,0,1,.5.5.51.51,0,0,1-.5.5"></path><path class="cls-1" d="M32.06,21.11H13.79a.5.5,0,0,1-.5-.5.51.51,0,0,1,.5-.5H32.06a.51.51,0,0,1,.5.5.5.5,0,0,1-.5.5"></path><path class="cls-2" d="M42.39,29.36H3.33A3.34,3.34,0,0,1,0,26V3.33A3.33,3.33,0,0,1,3.33,0H26V1H3.33A2.34,2.34,0,0,0,1,3.33V26a2.35,2.35,0,0,0,2.33,2.34H42.39A2.35,2.35,0,0,0,44.73,26V3.33A2.34,2.34,0,0,0,42.39,1H39.26V0h3.13a3.33,3.33,0,0,1,3.34,3.33V26A3.35,3.35,0,0,1,42.39,29.36Z"></path><path class="cls-2" d="M36.24,7.37H.62a.51.51,0,0,1-.5-.5.5.5,0,0,1,.5-.5H36.24a.5.5,0,0,1,.5.5A.5.5,0,0,1,36.24,7.37Z"></path><circle class="cls-3" cx="4.16" cy="3.74" r="1"></circle><circle class="cls-3" cx="8.42" cy="3.74" r="1"></circle><circle class="cls-3" cx="12.4" cy="3.74" r="1"></circle><path class="cls-2" d="M8.43,25.24a.5.5,0,0,1-.5-.5h0V7.17a.51.51,0,0,1,.5-.5.5.5,0,0,1,.5.5V24.74a.5.5,0,0,1-.5.5Z"></path></g></g></g></svg> 