<?xml version="1.0" encoding="UTF-8"?> <svg xmlns="http://www.w3.org/2000/svg" viewBox="0 0 35.62 36.42"><defs><style>.cls-1{fill:#f6731f;}.cls-2{fill:#004adb;}</style></defs><g id="Warstwa_2" data-name="Warstwa 2"><g id="Warstwa_1-2" data-name="Warstwa 1"><g id="Warstwa_1-3" data-name="Warstwa 1"><path class="cls-1" d="M33.31,30h-31a.5.5,0,0,1-.5-.5.5.5,0,0,1,.5-.5h31a.51.51,0,0,1,.5.5A.5.5,0,0,1,33.31,30Z"></path><path class="cls-1" d="M20.7,33.11H.93a.5.5,0,0,1-.5-.5.5.5,0,0,1,.5-.5H20.7a.5.5,0,0,1,.5.5A.51.51,0,0,1,20.7,33.11Z"></path><path class="cls-2" d="M35.62,36.42H33.31a.5.5,0,0,1,0-1h1.3c-.28-8.15-7.37-10.14-11.94-10.57a5.17,5.17,0,0,1-9.72,0C7.39,25.36,1,27.73,1,35.92a.5.5,0,0,1-.5.5.5.5,0,0,1-.5-.5c0-9.65,8.34-11.73,13.31-12.11l.47,0,.06.46a4.12,4.12,0,0,0,7.94,0l.06-.46.47,0c4,.31,13.31,2.1,13.31,12.11Z"></path><path class="cls-2" d="M33.31,36.42H14.4a.5.5,0,1,1,0-1H33.31a.5.5,0,0,1,0,1Z"></path><path class="cls-2" d="M18.16,22.64c-1.8,0-3.66-1.07-5.24-3a14.44,14.44,0,0,1-2.67-5.34v-.13c0-2.57,1.33-5.32,4.94-5.33,4.48,0,5.86-2.43,5.87-2.45l.27-.5.46.33a10.07,10.07,0,0,1,3.72,7.61v.11a14.05,14.05,0,0,1-2.81,6.24A6,6,0,0,1,18.16,22.64ZM11.24,14.1A13.28,13.28,0,0,0,13.7,19c1.39,1.71,3,2.65,4.46,2.65a5.13,5.13,0,0,0,3.76-2.11,13.07,13.07,0,0,0,2.58-5.74,9.35,9.35,0,0,0-2.92-6.45c-.71.85-2.56,2.48-6.4,2.48C11.72,9.83,11.27,12.76,11.24,14.1Z"></path><path class="cls-2" d="M11.44,16.88,10.3,14.73a12.56,12.56,0,0,1-1-9.55,7.44,7.44,0,0,1,4-4.51c4.55-2.06,8.36,1.25,9.05,1.91,2.31.57,3.83,1.71,4.53,3.39,1.49,3.58-1.36,8.27-1.48,8.47l-.93,1.49V14.17c0-.11,0-.22,0-.33a8,8,0,0,0-2.93-6.12c-.69.71-2.54,2.1-6.39,2.1-3.52,0-3.93,3-3.94,4.34v.3ZM16.4,1a6.25,6.25,0,0,0-2.65.59A6.46,6.46,0,0,0,10.29,5.5a11.06,11.06,0,0,0,.15,7,4.55,4.55,0,0,1,4.74-3.69c4.46,0,5.88-2,5.89-2.05l.27-.39.4.24a8.47,8.47,0,0,1,3.62,5.76c.68-1.58,1.46-4.06.64-6C25.41,5,24.08,4,22,3.52l-.15,0-.1-.1A8.14,8.14,0,0,0,16.4,1Z"></path><path class="cls-2" d="M13.22,24.81a.5.5,0,0,1-.5-.5h0v-5a.5.5,0,0,1,.5-.5.5.5,0,0,1,.5.5v5a.5.5,0,0,1-.5.5Z"></path><path class="cls-2" d="M22.27,24.81a.5.5,0,0,1-.5-.5h0V19.84a.51.51,0,0,1,.5-.5.5.5,0,0,1,.5.5v4.47a.5.5,0,0,1-.5.5Z"></path></g></g></g></svg> 